<svg xmlns="http://www.w3.org/2000/svg" viewBox="0 0 512 512" role="img" aria-label="Culina">
  <!--
    A bowl with rising steam in the Culina dark olive seal.
    Scalable vector icon used as modern SVG favicon and PWA brand mark.

    Literal colours, not token names: this file is fetched by the browser as an
    image and never sees the app's stylesheet. Ground is the olive 800/900 pair
    (#34432c to #1d2618); the mark is sand 50 (#fdfbf7), the warm porcelain
    paper tone.

    Keep the token names themselves out of this comment. XML forbids a double
    hyphen inside a comment, every one of those names begins with two, and the
    whole document fails to parse over it. That is not a warning anywhere: the
    browser simply has no icon.
  -->
  <defs>
    <linearGradient id="culina-grad" x1="20%" y1="0%" x2="80%" y2="100%">
      <stop offset="0%" stop-color="#34432c" />
      <stop offset="50%" stop-color="#283522" />
      <stop offset="100%" stop-color="#1d2618" />
    </linearGradient>
    <radialGradient id="culina-ambient" cx="50%" cy="25%" r="75%">
      <stop offset="0%" stop-color="#ffffff" stop-opacity="0.12" />
      <stop offset="60%" stop-color="#ffffff" stop-opacity="0" />
      <stop offset="100%" stop-color="#000000" stop-opacity="0.3" />
    </radialGradient>
    <filter id="culina-depth" x="-20%" y="-20%" width="140%" height="140%">
      <feDropShadow dx="0" dy="3.072" stdDeviation="4.096" flood-color="#0e140c" flood-opacity="0.5" />
    </filter>
  </defs>

  
      <circle cx="256" cy="256" r="240" fill="url(#culina-grad)" />
      <circle cx="256" cy="256" r="240" fill="url(#culina-ambient)" />
      <circle cx="256" cy="256" r="239" fill="none" stroke="#4a5f3d" stroke-width="2.56" stroke-opacity="0.8" />
    

  <g transform="translate(112.63999999999999, 112.63999999999999) scale(7.168000000000001)" color="#fdfbf7" filter="url(#culina-depth)">
    
  <!-- Steam plumes -->
  <path d="M16 16.5 C14.2 13.2 17.8 10.8 16 7.5 C15.2 6.2 14.5 5.5 14 4.8" stroke="currentColor" stroke-width="2" stroke-linecap="round" stroke-linejoin="round" fill="none" />
  <path d="M23.5 16.5 C21.7 13.2 25.3 10.8 23.5 7.5 C22.7 6.2 22 5.5 21.5 4.8" stroke="currentColor" stroke-width="2" stroke-linecap="round" stroke-linejoin="round" fill="none" />
  <!-- Bowl Rim -->
  <path d="M7 20.5 H33" stroke="currentColor" stroke-width="2.2" stroke-linecap="round" />
  <!-- Bowl Body -->
  <path d="M8.5 20.5 C9.2 27.8 14.2 32 20 32 C25.8 32 30.8 27.8 31.5 20.5" stroke="currentColor" stroke-width="2" stroke-linecap="round" stroke-linejoin="round" fill="none" />
  <!-- Ceramic Foot -->
  <path d="M16 34 H24" stroke="currentColor" stroke-width="2" stroke-linecap="round" />

  </g>
</svg>